<svg xmlns="http://www.w3.org/2000/svg" width="684.776" height="345.918" viewBox="0 0 684.776 345.918">
  <g id="Grupo_16152" data-name="Grupo 16152" transform="translate(-597.52 -1902.713)">
    <path id="Trazado_27234" data-name="Trazado 27234" d="M75.853,87.31a66.584,66.584,0,0,1,60.706,42.274A66.6,66.6,0,0,0,75.853,38.759V19.5L15.078,63.224l60.775,43.718Z" transform="matrix(0.602, -0.799, 0.799, 0.602, 572.871, 2182.687)" fill="#c4e7ff" fill-rule="evenodd"/>
    <path id="Trazado_27235" data-name="Trazado 27235" d="M60.775,42.274A66.584,66.584,0,0,0,121.481,0,66.6,66.6,0,0,1,60.775,90.826v19.257L0,66.361,60.775,22.642Z" transform="matrix(0.602, 0.799, -0.799, 0.602, 685.436, 1908.713)" fill="#c4e7ff" fill-rule="evenodd"/>
    <path id="Trazado_27236" data-name="Trazado 27236" d="M60.775,67.808a66.585,66.585,0,0,1,60.706,42.275A66.6,66.6,0,0,0,60.775,19.257V0L0,43.722,60.775,87.44Z" transform="matrix(-0.602, 0.799, -0.799, -0.602, 1282.296, 1968.962)" fill="#c4e7ff" fill-rule="evenodd"/>
    <path id="Trazado_27237" data-name="Trazado 27237" d="M60.775,42.275A66.585,66.585,0,0,0,121.481,0,66.6,66.6,0,0,1,60.775,90.826v19.257L0,66.361,60.775,22.643Z" transform="matrix(-0.602, -0.799, 0.799, -0.602, 1194.38, 2248.631)" fill="#c4e7ff" fill-rule="evenodd"/>
    <g id="Grupo_16114" data-name="Grupo 16114" transform="translate(1150.105 2181.049)">
      <path id="Trazado_27201" data-name="Trazado 27201" d="M-320.146,598.167h15.9c18.191,0,18.191-27.5,0-27.5h-43.083c-18.191,0-18.191-27.5,0-27.5h42.207c18.19,0,18.191-27.5,0-27.5h-15.158c-18.191,0-18.191-27.5,0-27.5h143.306c18.191,0,18.191,27.5,0,27.5h-7.579c-18.192,0-18.19,27.5,0,27.5h20.665c18.191,0,18.191,27.5,0,27.5h-21.541c-18.191,0-18.191,27.5,0,27.5h6.621c18.191,0,18.191,27.5,0,27.5H-320.146c-18.191,0-18.191-27.5,0-27.5Z" transform="translate(-0.503 -585.944)" fill="#ebebeb" fill-rule="evenodd"/>
      <path id="Trazado_27202" data-name="Trazado 27202" d="M20.675,488.163H162.289c18.191,0,18.189,27.5,0,27.5H148.167c-19.22,0-20.917,27.5,2.1,27.5h39.713c18.191,0,18.189,27.5,0,27.5H132.776c-18.191,0-18.191,27.5,0,27.5h13.843c18.19,0,18.19,27.5,0,27.5H13.087c-18.189,0-18.189-27.5,0-27.5h7.588c18.309,0,19.073-27.5,0-27.5H-11.714c-18.189,0-18.19-27.5,0-27.5H11.758c20.142.62,22.526-27.5,0-27.5H-2.582c-18.191,0-18.191-27.5,0-27.5H20.675Zm159.346,110h-.082a13.789,13.789,0,0,0-13.75,13.75h0a13.789,13.789,0,0,0,13.75,13.749h.082a13.789,13.789,0,0,0,13.75-13.749h0a13.789,13.789,0,0,0-13.75-13.75Z" transform="translate(-259.042 -585.942)" fill="#d6d6d6" fill-rule="evenodd"/>
      <path id="Trazado_27203" data-name="Trazado 27203" d="M-348.063,1008.878l-3.5-3.5,2.946-2.946,3.5,3.5Zm7.471,0-2.946-2.946,3.5-3.5,2.946,2.946Zm.558-8.029-3.5-3.5,2.946-2.946,3.5,3.5Zm-8.588,0-2.946-2.946,3.5-3.5,2.946,2.946Z" transform="translate(-7.744 -975.921)" fill="#105286"/>
      <path id="Trazado_27204" data-name="Trazado 27204" d="M216.924,704.234h41.8v25.93h-41.8v-25.93Z" transform="translate(-445.682 -752.393)" fill="#b3b3b3" fill-rule="evenodd"/>
      <path id="Trazado_27205" data-name="Trazado 27205" d="M176,817.145h52.245a5.434,5.434,0,0,1,5.418,5.418v5.418H170.581v-5.418A5.434,5.434,0,0,1,176,817.145Z" transform="translate(-409.982 -839.374)" fill="#e1e1e1" fill-rule="evenodd"/>
      <path id="Trazado_27206" data-name="Trazado 27206" d="M227.829,743.478H159.792v-7.9a7.9,7.9,0,0,1,7.9-7.9h2.747V704.234h4.955v23.452h36.841V704.234h4.955v23.452h2.747a7.9,7.9,0,0,1,7.9,7.9Zm-63.081-4.955h58.126v-2.941a2.943,2.943,0,0,0-2.94-2.94H167.688a2.943,2.943,0,0,0-2.94,2.94Z" transform="translate(-401.671 -752.392)" fill="#105286"/>
      <path id="Trazado_27207" data-name="Trazado 27207" d="M-207.88-69.294H8.586A12.548,12.548,0,0,1,21.1-56.782V95.834A12.548,12.548,0,0,1,8.586,108.345H-207.88a12.548,12.548,0,0,1-12.511-12.511V-56.782A12.548,12.548,0,0,1-207.88-69.294Z" transform="translate(-108.796 -156.504)" fill="#e1e1e1" fill-rule="evenodd"/>
      <path id="Trazado_27208" data-name="Trazado 27208" d="M.275,102.512H-216.191A15.006,15.006,0,0,1-231.18,87.523V-65.094a15.006,15.006,0,0,1,14.989-14.989H.275A15.006,15.006,0,0,1,15.264-65.094V87.523A15.006,15.006,0,0,1,.275,102.512ZM-216.191-75.127a10.045,10.045,0,0,0-10.034,10.034V87.523a10.045,10.045,0,0,0,10.034,10.034H.275A10.045,10.045,0,0,0,10.309,87.523V-65.094A10.045,10.045,0,0,0,.275-75.127Z" transform="translate(-100.485 -148.193)" fill="#105286"/>
      <path id="Trazado_27209" data-name="Trazado 27209" d="M284.116,600.184a5.344,5.344,0,1,1-5.344,5.344,5.344,5.344,0,0,1,5.344-5.344Z" transform="translate(-493.327 -672.237)" fill="#475563" fill-rule="evenodd"/>
      <path id="Trazado_27210" data-name="Trazado 27210" d="M-162.252-19.454H52.534V111.74H-162.252V-19.454Z" transform="translate(-153.583 -194.898)" fill="#fff" fill-rule="evenodd"/>
      <path id="Trazado_27211" data-name="Trazado 27211" d="M76.469,431.328H96.1v19.616H76.469V431.328Z" transform="translate(-337.482 -542.159)" fill="#ff576b" fill-rule="evenodd"/>
      <path id="Trazado_27212" data-name="Trazado 27212" d="M262.647,431.328h19.632v19.616H262.647V431.328Z" transform="translate(-480.905 -542.159)" fill="#3fe4c0" fill-rule="evenodd"/>
      <path id="Trazado_27213" data-name="Trazado 27213" d="M448.825,431.328h19.632v19.616H448.825V431.328Z" transform="translate(-624.328 -542.159)" fill="#ffd027" fill-rule="evenodd"/>
      <path id="Trazado_27214" data-name="Trazado 27214" d="M-143.162,16.859H58.778V72.61h-201.94V16.859Z" transform="translate(-168.289 -222.872)" fill="#ffd027" fill-rule="evenodd"/>
      <path id="Trazado_27215" data-name="Trazado 27215" d="M-118.883-261.664h50.966a5.857,5.857,0,0,1,5.84,5.84v98.2a5.857,5.857,0,0,1-5.84,5.84h-50.966a5.857,5.857,0,0,1-5.84-5.84v-98.2a5.857,5.857,0,0,1,5.84-5.84Z" transform="translate(-182.494 -8.311)" fill="#e1e1e1" fill-rule="evenodd"/>
      <path id="Trazado_27216" data-name="Trazado 27216" d="M-101.537-194.728h52v79.141h-52v-79.141Z" transform="translate(-200.355 -59.875)" fill="#fff" fill-rule="evenodd"/>
      <path id="Trazado_27217" data-name="Trazado 27217" d="M-76.229-157.613h-50.965a8.327,8.327,0,0,1-8.318-8.318v-98.2a8.327,8.327,0,0,1,8.318-8.318h50.965a8.327,8.327,0,0,1,8.318,8.318v98.2A8.327,8.327,0,0,1-76.229-157.613ZM-127.194-267.5a3.366,3.366,0,0,0-3.362,3.362v98.2a3.366,3.366,0,0,0,3.362,3.362h50.965a3.366,3.366,0,0,0,3.362-3.362v-98.2a3.366,3.366,0,0,0-3.362-3.362Z" transform="translate(-174.183)" fill="#105286"/>
      <path id="Trazado_27218" data-name="Trazado 27218" d="M-5.617,165.5a4.1,4.1,0,0,1,4.1,4.1,4.1,4.1,0,0,1-4.1,4.1,4.1,4.1,0,0,1-4.1-4.1,4.1,4.1,0,0,1,4.1-4.1Z" transform="translate(-271.087 -337.375)" fill="#475563" fill-rule="evenodd"/>
      <path id="Trazado_27219" data-name="Trazado 27219" d="M-23.142-232.434h11.1a1.179,1.179,0,0,1,1.176,1.175h0a1.179,1.179,0,0,1-1.176,1.176h-11.1a1.179,1.179,0,0,1-1.175-1.176h0a1.179,1.179,0,0,1,1.175-1.175Zm-5.688,0h.274a1.179,1.179,0,0,1,1.175,1.175h0a1.179,1.179,0,0,1-1.175,1.176h-.274A1.179,1.179,0,0,1-30-231.258h0a1.179,1.179,0,0,1,1.176-1.175Z" transform="translate(-255.46 -30.829)" fill="#475563" fill-rule="evenodd"/>
      <path id="Trazado_27220" data-name="Trazado 27220" d="M507.522,322.532h78.713a9.046,9.046,0,0,1,9.019,9.019V445.109a9.046,9.046,0,0,1-9.019,9.019H507.522a9.046,9.046,0,0,1-9.019-9.019V331.551a9.046,9.046,0,0,1,9.019-9.019Z" transform="translate(-662.597 -458.348)" fill="#e1e1e1" fill-rule="evenodd"/>
      <path id="Trazado_27221" data-name="Trazado 27221" d="M534.311,393.526h80.3v98.989h-80.3V393.526Z" transform="translate(-690.182 -513.038)" fill="#fff" fill-rule="evenodd"/>
      <path id="Trazado_27222" data-name="Trazado 27222" d="M577.924,448.295H499.211a11.51,11.51,0,0,1-11.5-11.5V323.24a11.51,11.51,0,0,1,11.5-11.5h78.713a11.51,11.51,0,0,1,11.5,11.5V436.8A11.51,11.51,0,0,1,577.924,448.295ZM499.211,316.7a6.549,6.549,0,0,0-6.541,6.541V436.8a6.549,6.549,0,0,0,6.541,6.541h78.713a6.549,6.549,0,0,0,6.542-6.541V323.24a6.549,6.549,0,0,0-6.542-6.541Z" transform="translate(-654.286 -450.036)" fill="#105286"/>
      <path id="Trazado_27223" data-name="Trazado 27223" d="M691.865,836.415a4.1,4.1,0,1,1-4.1,4.1,4.1,4.1,0,0,1,4.1-4.1Z" transform="translate(-808.394 -854.218)" fill="#475563" fill-rule="evenodd"/>
      <path id="Trazado_27224" data-name="Trazado 27224" d="M674.34,354.159h11.1a1.179,1.179,0,0,1,1.176,1.176h0a1.179,1.179,0,0,1-1.176,1.175h-11.1a1.179,1.179,0,0,1-1.176-1.175h0a1.179,1.179,0,0,1,1.176-1.176Zm-5.688,0h.273a1.179,1.179,0,0,1,1.176,1.176h0a1.179,1.179,0,0,1-1.176,1.175h-.273a1.179,1.179,0,0,1-1.176-1.175h0a1.179,1.179,0,0,1,1.176-1.176Z" transform="translate(-792.766 -482.712)" fill="#475563" fill-rule="evenodd"/>
      <path id="Trazado_27225" data-name="Trazado 27225" d="M-84.429-175.328h43.8v24.351h-43.8v-24.351Z" transform="translate(-213.534 -74.82)" fill="#ffd027" fill-rule="evenodd"/>
      <path id="Trazado_27226" data-name="Trazado 27226" d="M-23.4,58.645H-7.29V74.452H-23.4V58.645Z" transform="translate(-260.552 -255.062)" fill="#ff576b" fill-rule="evenodd"/>
      <path id="Trazado_27227" data-name="Trazado 27227" d="M577.367,683.3h23.2v25.663h-23.2V683.3Z" transform="translate(-723.35 -736.269)" fill="#ff576b" fill-rule="evenodd"/>
      <path id="Trazado_27228" data-name="Trazado 27228" d="M739.9,683.3h23.2v25.663H739.9V683.3Z" transform="translate(-848.559 -736.269)" fill="#3fe4c0" fill-rule="evenodd"/>
      <path id="Trazado_27229" data-name="Trazado 27229" d="M561.143,420.791h67.98v24.351h-67.98V420.791Z" transform="translate(-710.852 -534.042)" fill="#ffd027" fill-rule="evenodd"/>
      <rect id="Rectángulo_3023" data-name="Rectángulo 3023" width="83.48" height="4.956" transform="translate(-252.221 -140.064)" fill="#105286"/>
      <rect id="Rectángulo_3024" data-name="Rectángulo 3024" width="50.72" height="4.956" transform="translate(-235.842 -128.037)" fill="#105286"/>
      <rect id="Rectángulo_3025" data-name="Rectángulo 3025" width="30.162" height="4.956" transform="translate(-290.976 -219.636)" fill="#105286"/>
      <rect id="Rectángulo_3026" data-name="Rectángulo 3026" width="18.326" height="4.956" transform="translate(-285.057 -207.609)" fill="#105286"/>
      <rect id="Rectángulo_3027" data-name="Rectángulo 3027" width="51.776" height="4.956" transform="translate(-141.607 -79.255)" fill="#105286"/>
      <rect id="Rectángulo_3028" data-name="Rectángulo 3028" width="31.458" height="4.955" transform="translate(-131.448 -67.227)" fill="#105286"/>
      <path id="Trazado_27230" data-name="Trazado 27230" d="M-54.078-251.3l-3.5-3.5,2.946-2.946,3.5,3.5Zm7.471,0-2.946-2.946,3.5-3.5,2.946,2.946Zm-288.316-.884-2.946-2.946,3.5-3.5,2.946,2.946Zm-7.471,0-3.5-3.5,2.946-2.946,3.5,3.5Zm296.346-7.145-3.5-3.5,2.946-2.946,3.5,3.5Zm-8.588,0-2.946-2.946,3.5-3.5,2.946,2.946Zm-279.729-.884-3.5-3.5,2.946-2.946,3.5,3.5Zm-8.587,0-2.946-2.946,3.5-3.5,2.946,2.946Z" transform="translate(-12.111 -4.459)" fill="#105286"/>
      <path id="Trazado_27231" data-name="Trazado 27231" d="M-171.832,33.12a7.768,7.768,0,0,1-5.25-2.032,7.805,7.805,0,0,1-.507-11.014,7.805,7.805,0,0,1,11.014-.508,7.805,7.805,0,0,1,.508,11.014A7.778,7.778,0,0,1-171.832,33.12Zm0-10.632a2.835,2.835,0,0,0-2.1.925,2.844,2.844,0,0,0,.185,4.013,2.845,2.845,0,0,0,4.013-.185,2.844,2.844,0,0,0-.185-4.013A2.831,2.831,0,0,0-171.827,22.487ZM70.7-159.418a7.741,7.741,0,0,1-5.245-2.036,7.746,7.746,0,0,1-2.535-5.4,7.745,7.745,0,0,1,2.028-5.612h0a7.745,7.745,0,0,1,5.4-2.535,7.74,7.74,0,0,1,5.612,2.027,7.745,7.745,0,0,1,2.535,5.4,7.746,7.746,0,0,1-2.028,5.612,7.744,7.744,0,0,1-5.4,2.535Q70.887-159.418,70.7-159.418Zm.012-10.638c-.045,0-.089,0-.134,0a2.821,2.821,0,0,0-1.968.924h0a2.821,2.821,0,0,0-.739,2.045,2.822,2.822,0,0,0,.923,1.968,2.826,2.826,0,0,0,2.045.739,2.821,2.821,0,0,0,1.968-.924,2.822,2.822,0,0,0,.739-2.045,2.822,2.822,0,0,0-.924-1.968A2.819,2.819,0,0,0,70.716-170.056Zm-98.247-51.92a7.764,7.764,0,0,1-5.25-2.032,7.805,7.805,0,0,1-.508-11.014h0a7.8,7.8,0,0,1,11.014-.507,7.805,7.805,0,0,1,.508,11.014A7.779,7.779,0,0,1-27.531-221.976Zm-2.1-9.707a2.845,2.845,0,0,0,.185,4.013,2.845,2.845,0,0,0,4.014-.185,2.845,2.845,0,0,0-.185-4.013,2.844,2.844,0,0,0-4.014.185Z" transform="translate(-140.203 -26.879)" fill="#105286"/>
      <path id="Trazado_27232" data-name="Trazado 27232" d="M-56.59,92l-2.946-2.946,3.5-3.5,2.946,2.946Zm-7.471,0-3.5-3.5,2.946-2.946,3.5,3.5Zm8.029-8.029-3.5-3.5,2.946-2.946,3.5,3.5Zm-8.588,0-2.945-2.946,3.5-3.5,2.945,2.946ZM-350.645-16.647l-2.946-2.946,3.5-3.5,2.946,2.946Zm-7.471,0-3.5-3.5,2.946-2.946,3.5,3.5Zm8.029-8.029-3.5-3.5,2.946-2.946,3.5,3.5Zm-8.588,0-2.946-2.946,3.5-3.5,2.946,2.946Zm288.124-47.24-3.5-3.5,2.946-2.946,3.5,3.5Zm7.471,0-2.946-2.946,3.5-3.5,2.946,2.946Zm.559-8.029-3.5-3.5L-63.08-86.4l3.5,3.5Zm-8.588,0-2.946-2.946,3.5-3.5,2.946,2.946ZM-208.22-161.115l-2.946-2.946,3.5-3.5,2.946,2.946Zm-7.471,0-3.5-3.5,2.946-2.946,3.5,3.5Zm8.029-8.029-3.5-3.5,2.946-2.946,3.5,3.5Zm-8.587,0-2.946-2.946,3.5-3.5,2.946,2.946Z" transform="translate(0 -74.615)" fill="#105286"/>
      <path id="Trazado_27233" data-name="Trazado 27233" d="M-186.787,344.7a7.741,7.741,0,0,1-5.245-2.036,7.805,7.805,0,0,1-.507-11.014,7.745,7.745,0,0,1,5.4-2.535,7.74,7.74,0,0,1,5.612,2.027,7.745,7.745,0,0,1,2.535,5.4,7.744,7.744,0,0,1-2.028,5.612,7.744,7.744,0,0,1-5.4,2.535Q-186.6,344.7-186.787,344.7Zm.012-10.638c-.044,0-.089,0-.134,0a2.821,2.821,0,0,0-1.968.923h0a2.844,2.844,0,0,0,.185,4.013,2.83,2.83,0,0,0,2.045.739,2.822,2.822,0,0,0,1.968-.924,2.821,2.821,0,0,0,.739-2.045,2.823,2.823,0,0,0-.924-1.969A2.822,2.822,0,0,0-186.775,334.063ZM-352.326,164.6a7.765,7.765,0,0,1-5.25-2.032,7.744,7.744,0,0,1-2.535-5.4,7.744,7.744,0,0,1,2.027-5.612,7.8,7.8,0,0,1,11.014-.508,7.745,7.745,0,0,1,2.535,5.4,7.746,7.746,0,0,1-2.027,5.612A7.778,7.778,0,0,1-352.326,164.6Zm0-10.632a2.834,2.834,0,0,0-2.1.925,2.822,2.822,0,0,0-.739,2.045,2.822,2.822,0,0,0,.924,1.968,2.844,2.844,0,0,0,4.013-.185,2.822,2.822,0,0,0,.739-2.045,2.821,2.821,0,0,0-.924-1.968A2.83,2.83,0,0,0-352.321,153.971Z" transform="translate(-1.156 -324.68)" fill="#105286"/>
    </g>
  </g>
</svg>
