<svg xmlns="http://www.w3.org/2000/svg" width="130" height="130" viewBox="0 0 130 130">
  <g id="Grupo_16151" data-name="Grupo 16151" transform="translate(-489 -2684)">
    <circle id="Elipse_1293" data-name="Elipse 1293" cx="65" cy="65" r="65" transform="translate(489 2684)" fill="#f0fff0"/>
    <g id="Grupo_16068" data-name="Grupo 16068" transform="translate(524.79 2727.039)">
      <path id="Trazado_27195" data-name="Trazado 27195" d="M45.176,19.93a1.48,1.48,0,0,0-2.025,2.158h0A22.575,22.575,0,0,1,44.2,53.976,1.48,1.48,0,0,0,46.359,56,25.531,25.531,0,0,0,45.176,19.93Z" transform="translate(3.166 -18.469)" fill="#5ed45e"/>
      <path id="Trazado_27196" data-name="Trazado 27196" d="M42.006,23.21a1.48,1.48,0,1,0-2.025,2.158,15.715,15.715,0,0,1,.724,22.175,1.474,1.474,0,0,0,2.084,2.084,18.671,18.671,0,0,0-.758-26.395Z" transform="translate(1.649 -16.9)" fill="#5ed45e"/>
      <path id="Trazado_27197" data-name="Trazado 27197" d="M38.828,26.521a1.478,1.478,0,1,0-2.158,2.021,1.451,1.451,0,0,0,.148.137,8.871,8.871,0,0,1,.414,12.477,1.479,1.479,0,0,0,2.09,2.093l.009-.009a11.827,11.827,0,0,0-.5-16.719Z" transform="translate(0.097 -15.348)" fill="#5ed45e"/>
      <path id="Trazado_27198" data-name="Trazado 27198" d="M41.8,19.193a2.722,2.722,0,0,0-2.779,0L23.985,28.152H15.854a4.2,4.2,0,0,0-4.184,4.213V44.222a4.2,4.2,0,0,0,4.184,4.2h8.131l15.064,8.87a2.742,2.742,0,0,0,1.478.4,2.813,2.813,0,0,0,1.36-.37,2.736,2.736,0,0,0,1.478-2.41V21.6A2.736,2.736,0,0,0,41.8,19.193ZM22.876,45.508H15.854a1.241,1.241,0,0,1-1.227-1.242V32.4a1.241,1.241,0,0,1,1.227-1.242h7.022Zm17.371,9.181L25.833,46.144V30.473l14.414-8.545Z" transform="translate(-11.67 -18.812)" fill="#5ed45e"/>
    </g>
  </g>
</svg>
