<svg xmlns="http://www.w3.org/2000/svg" width="130" height="130" viewBox="0 0 130 130">
  <g id="Grupo_16153" data-name="Grupo 16153" transform="translate(-457 -3262)">
    <circle id="Elipse_1336" data-name="Elipse 1336" cx="65" cy="65" r="65" transform="translate(457 3262)" fill="#f0fff0"/>
    <g id="Grupo_16130" data-name="Grupo 16130" transform="translate(485.68 3288.83)">
      <path id="Trazado_27247" data-name="Trazado 27247" d="M63.641,80.49,61,83.733Z" transform="translate(-14.516 -19.973)" fill="#5ed45e"/>
      <path id="Trazado_27248" data-name="Trazado 27248" d="M64.99,83.444q.365-.491.744-1l-.208-.32L62.55,85.795l-3.63,4.419a33.718,33.718,0,0,0,9.6-3.474l-2.507-3.809C65.675,83.087,65.34,83.273,64.99,83.444Z" transform="translate(-13.983 -20.391)" fill="#5ed45e"/>
      <path id="Trazado_27249" data-name="Trazado 27249" d="M43.888,64.043a10.419,10.419,0,0,1-3.318,1.585V52.334h1.793l-.6-4.53h-1.2V38.743h0l-.305-2.336,4.114,1.6,1.9.744h7.811c0,1-.119,1.986-.208,2.976l4.367,1.7q.282-2.276.379-4.657h9.031a29.228,29.228,0,0,1-1.637,7.677l.29.112,3.972,1.51a34.026,34.026,0,0,0,1.956-9.321h.074v-4.53h-.074A33.989,33.989,0,0,0,40.57,2.574V2.5h-4.5v.074A34,34,0,0,0,4.394,34.212H4.32v4.53h.074A34,34,0,0,0,36.07,70.381v.074H40.6v-.074a33.391,33.391,0,0,0,4.047-.558L43.9,64.065Zm23.8-29.83H58.647a54.8,54.8,0,0,0-1.116-9.023h7.96a29.231,29.231,0,0,1,2.172,9.023ZM63.118,20.621H56.333A36.006,36.006,0,0,0,51.007,9.9,29.565,29.565,0,0,1,63.118,20.621ZM40.57,7.335c4.657,1.227,8.666,6.234,11.121,13.286H40.57Zm0,17.854H52.941a50.844,50.844,0,0,1,1.168,9.061H40.57ZM25.6,9.9a36.006,36.006,0,0,0-5.326,10.72H13.485A29.565,29.565,0,0,1,25.6,9.9ZM11.112,25.189h7.96a54.758,54.758,0,0,0-1.116,9.061H8.94A29.242,29.242,0,0,1,11.112,25.189ZM8.94,38.743h9.016A54.758,54.758,0,0,0,19.072,47.8h-7.96A29.242,29.242,0,0,1,8.94,38.743Zm4.545,13.591h6.784A36.006,36.006,0,0,0,25.6,63.053,29.565,29.565,0,0,1,13.485,52.334ZM36.07,65.627c-4.694-1.235-8.7-6.219-11.158-13.293H36.07Zm0-17.854H23.661a50.845,50.845,0,0,1-1.168-9.061H36.07Zm0-13.591H22.493a50.79,50.79,0,0,1,1.168-8.994H36.07Zm0-13.591H24.911C27.366,13.569,31.376,8.563,36.07,7.335Z" fill="#5ed45e"/>
      <path id="Trazado_27250" data-name="Trazado 27250" d="M83.919,68.846l-1.428.677-.2.29,3.139,3.392a33.933,33.933,0,0,0,4.084-6.985l-3.028,1.428Z" transform="translate(-19.968 -16.319)" fill="#5ed45e"/>
      <path id="Trazado_27251" data-name="Trazado 27251" d="M58.21,63.4h0c.193,1.488.394,3.02.588,4.53h0C58.6,66.42,58.4,64.91,58.21,63.4Z" transform="translate(-13.801 -15.597)" fill="#5ed45e"/>
      <path id="Trazado_27252" data-name="Trazado 27252" d="M77.806,72.551l-6.464-6.978,7.5-3.519L56.91,53.5q.491,3.719.967,7.365c.193,1.488.394,3.02.588,4.53.245,1.852.484,3.719.744,5.557s.506,3.9.744,5.869l2.633-3.243L65.2,70.372l10.415,15.86,2.194-1.7,6.42-5.029C82.069,77.178,79.926,74.872,77.806,72.551Z" transform="translate(-13.468 -13.061)" fill="#5ed45e"/>
    </g>
  </g>
</svg>
