<svg xmlns="http://www.w3.org/2000/svg" width="130" height="130" viewBox="0 0 130 130">
  <g id="Grupo_16154" data-name="Grupo 16154" transform="translate(-457 -3508)">
    <circle id="Elipse_1337" data-name="Elipse 1337" cx="65" cy="65" r="65" transform="translate(457 3508)" fill="#f0fff0"/>
    <g id="Grupo_16132" data-name="Grupo 16132" transform="translate(491.001 3548.226)">
      <g id="Grupo_16131" data-name="Grupo 16131" transform="translate(-0.001)">
        <path id="Trazado_27253" data-name="Trazado 27253" d="M65.312,47.9H1.243A1.9,1.9,0,0,1,0,46.6V7.043c.108,0,.217-.009.325-.009H66.556v.321q0,19.5,0,39.012a1.377,1.377,0,0,1-.531,1.134A5.007,5.007,0,0,1,65.312,47.9ZM61.307,15.646H48.544V30.232H61.307ZM4.808,36.451H61.383V34.3H4.808ZM61.4,40.688H4.816v2.161H61.4ZM44.657,21.76H4.8v2.161h39.86ZM4.807,30.317H44.659V28.154H4.807Zm.061-12.47h27.8V15.658H4.868Z" transform="translate(0.001 -1.832)" fill="#5ed45e"/>
        <path id="Trazado_27254" data-name="Trazado 27254" d="M1.3,0h64.01a.954.954,0,0,0,.121.069,1.578,1.578,0,0,1,1.123,1.619V4.195H.444C.3,4.195.147,4.2,0,4.2V1.3A1.911,1.911,0,0,1,1.3,0ZM4.8,2.911a.818.818,0,0,0,.013-1.637.838.838,0,0,0-.844.813A.838.838,0,0,0,4.8,2.911ZM3.088,2.083a.818.818,0,1,0-.816.828A.813.813,0,0,0,3.088,2.083ZM8.119,2.1a.817.817,0,1,0-1.634-.022.808.808,0,0,0,.789.828A.822.822,0,0,0,8.119,2.1Z" transform="translate(0.001)" fill="#5ed45e"/>
      </g>
    </g>
  </g>
</svg>
