<svg xmlns="http://www.w3.org/2000/svg" width="130" height="130" viewBox="0 0 130 130">
  <g id="Grupo_16155" data-name="Grupo 16155" transform="translate(-457 -3768)">
    <circle id="Elipse_1334" data-name="Elipse 1334" cx="65" cy="65" r="65" transform="translate(457 3768)" fill="#f0fff0"/>
    <g id="Grupo_16126" data-name="Grupo 16126" transform="translate(467.3 3782.7)">
      <g id="Grupo_16116" data-name="Grupo 16116">
        <g id="Grupo_16115" data-name="Grupo 16115">
          <path id="Trazado_27238" data-name="Trazado 27238" d="M87.1,63.4h0a2.006,2.006,0,0,1-2,2H42.5a1.927,1.927,0,0,1-1.9-1.5L28.9,22.8A1.927,1.927,0,0,0,27,21.3H22a2.006,2.006,0,0,1-2-2h0a2.006,2.006,0,0,1,2-2h7.8a1.927,1.927,0,0,1,1.9,1.5L43.4,59.9a1.927,1.927,0,0,0,1.9,1.5H85A2.03,2.03,0,0,1,87.1,63.4Z" fill="#5ed45e"/>
        </g>
      </g>
      <g id="Grupo_16118" data-name="Grupo 16118">
        <g id="Grupo_16117" data-name="Grupo 16117">
          <line id="Línea_1" data-name="Línea 1" x1="0.1" transform="translate(31.3 17.4)" fill="none"/>
        </g>
      </g>
      <g id="Grupo_16120" data-name="Grupo 16120">
        <g id="Grupo_16119" data-name="Grupo 16119">
          <path id="Trazado_27239" data-name="Trazado 27239" d="M50.2,82.6a8,8,0,1,1,8-8A8.024,8.024,0,0,1,50.2,82.6Zm0-11.9a3.9,3.9,0,0,0,0,7.8,3.9,3.9,0,0,0,0-7.8Z" fill="#5ed45e"/>
        </g>
      </g>
      <g id="Grupo_16122" data-name="Grupo 16122">
        <g id="Grupo_16121" data-name="Grupo 16121">
          <path id="Trazado_27240" data-name="Trazado 27240" d="M77.9,82.6a8,8,0,1,1,8-8A8.024,8.024,0,0,1,77.9,82.6Zm0-11.9a3.9,3.9,0,0,0,0,7.8,3.9,3.9,0,0,0,0-7.8Z" fill="#5ed45e"/>
        </g>
      </g>
      <g id="Grupo_16124" data-name="Grupo 16124">
        <g id="Grupo_16123" data-name="Grupo 16123">
          <path id="Trazado_27241" data-name="Trazado 27241" d="M67.9,75.5H60.2A1.155,1.155,0,0,1,59,74.3h0a1.155,1.155,0,0,1,1.2-1.2h7.7a1.155,1.155,0,0,1,1.2,1.2h0A1.29,1.29,0,0,1,67.9,75.5Z" fill="#5ed45e"/>
        </g>
      </g>
      <g id="Grupo_16125" data-name="Grupo 16125">
        <path id="Trazado_27242" data-name="Trazado 27242" d="M65.9,27.3H42.7a5,5,0,0,0-4.8,6.3l6,22.4a4.925,4.925,0,0,0,4.8,3.7H79.3A5.012,5.012,0,0,0,84.1,56l6-22.4a5,5,0,0,0-4.8-6.3Z" fill="#5ed45e"/>
      </g>
      <path id="Trazado_27243" data-name="Trazado 27243" d="M30.5,44.7H11.3a1.58,1.58,0,0,1-1.6-1.6h0a1.58,1.58,0,0,1,1.6-1.6H30.5a1.58,1.58,0,0,1,1.6,1.6h0A1.577,1.577,0,0,1,30.5,44.7Z" fill="#5ed45e"/>
      <path id="Trazado_27244" data-name="Trazado 27244" d="M30.5,55.2H18.2a1.58,1.58,0,0,1-1.6-1.6h0A1.58,1.58,0,0,1,18.2,52H30.6a1.58,1.58,0,0,1,1.6,1.6h0A1.738,1.738,0,0,1,30.5,55.2Z" fill="#5ed45e"/>
    </g>
  </g>
</svg>
